<mxfile host="app.diagrams.net" modified="2022-06-09T07:10:59.297Z" agent="5.0 (Windows)" etag="MrRi0uUMKFyhjwK35udF" version="19.0.3" type="github">
  <diagram id="kgpKYQtTHZ0yAKxKKP6v" name="Page-1">
    <mxGraphModel dx="981" dy="489" grid="1" gridSize="10" guides="1" tooltips="1" connect="1" arrows="1" fold="1" page="1" pageScale="1" pageWidth="850" pageHeight="1100" math="0" shadow="0">
      <root>
        <mxCell id="0" />
        <mxCell id="1" parent="0" />
        <mxCell id="3nuBFxr9cyL0pnOWT2aG-1" value="Client" style="shape=umlLifeline;perimeter=lifelinePerimeter;container=1;collapsible=0;recursiveResize=0;rounded=0;shadow=0;strokeWidth=1;" parent="1" vertex="1">
          <mxGeometry x="120" y="80" width="100" height="300" as="geometry" />
        </mxCell>
        <mxCell id="3nuBFxr9cyL0pnOWT2aG-2" value="" style="points=[];perimeter=orthogonalPerimeter;rounded=0;shadow=0;strokeWidth=1;" parent="3nuBFxr9cyL0pnOWT2aG-1" vertex="1">
          <mxGeometry x="45" y="70" width="10" height="190" as="geometry" />
        </mxCell>
        <mxCell id="3nuBFxr9cyL0pnOWT2aG-5" value="App" style="shape=umlLifeline;perimeter=lifelinePerimeter;container=1;collapsible=0;recursiveResize=0;rounded=0;shadow=0;strokeWidth=1;" parent="1" vertex="1">
          <mxGeometry x="300" y="80" width="100" height="300" as="geometry" />
        </mxCell>
        <mxCell id="3nuBFxr9cyL0pnOWT2aG-6" value="" style="points=[];perimeter=orthogonalPerimeter;rounded=0;shadow=0;strokeWidth=1;" parent="3nuBFxr9cyL0pnOWT2aG-5" vertex="1">
          <mxGeometry x="45" y="80" width="10" height="160" as="geometry" />
        </mxCell>
        <mxCell id="3nuBFxr9cyL0pnOWT2aG-8" value="Register/Login/Purchase" style="verticalAlign=bottom;endArrow=block;entryX=0;entryY=0;shadow=0;strokeWidth=1;" parent="1" source="3nuBFxr9cyL0pnOWT2aG-2" target="3nuBFxr9cyL0pnOWT2aG-6" edge="1">
          <mxGeometry relative="1" as="geometry">
            <mxPoint x="275" y="160" as="sourcePoint" />
          </mxGeometry>
        </mxCell>
        <mxCell id="3nuBFxr9cyL0pnOWT2aG-9" value="Confirm / Reject" style="verticalAlign=bottom;endArrow=block;entryX=1;entryY=0;shadow=0;strokeWidth=1;" parent="1" edge="1">
          <mxGeometry relative="1" as="geometry">
            <mxPoint x="345" y="229" as="sourcePoint" />
            <mxPoint x="180" y="229" as="targetPoint" />
          </mxGeometry>
        </mxCell>
        <mxCell id="O3cd_A9TwJJ-fEm1hBFP-1" value="Payment Gateway&#xa;Federated Login" style="shape=umlLifeline;perimeter=lifelinePerimeter;container=1;collapsible=0;recursiveResize=0;rounded=0;shadow=0;strokeWidth=1;" vertex="1" parent="1">
          <mxGeometry x="480" y="80" width="100" height="300" as="geometry" />
        </mxCell>
        <mxCell id="O3cd_A9TwJJ-fEm1hBFP-2" value="" style="points=[];perimeter=orthogonalPerimeter;rounded=0;shadow=0;strokeWidth=1;" vertex="1" parent="O3cd_A9TwJJ-fEm1hBFP-1">
          <mxGeometry x="45" y="80" width="10" height="160" as="geometry" />
        </mxCell>
        <mxCell id="O3cd_A9TwJJ-fEm1hBFP-4" value="Check Authenticity / Authorize" style="verticalAlign=bottom;endArrow=block;entryX=0;entryY=0;shadow=0;strokeWidth=1;" edge="1" parent="1">
          <mxGeometry relative="1" as="geometry">
            <mxPoint x="355" y="180.0000000000001" as="sourcePoint" />
            <mxPoint x="525" y="180.0000000000001" as="targetPoint" />
          </mxGeometry>
        </mxCell>
        <mxCell id="O3cd_A9TwJJ-fEm1hBFP-5" value="Confirm / Reject" style="verticalAlign=bottom;endArrow=open;dashed=1;endSize=8;exitX=0;exitY=0.95;shadow=0;strokeWidth=1;" edge="1" parent="1">
          <mxGeometry relative="1" as="geometry">
            <mxPoint x="354" y="205.9999999999999" as="targetPoint" />
            <mxPoint x="524" y="205.9999999999999" as="sourcePoint" />
          </mxGeometry>
        </mxCell>
        <mxCell id="O3cd_A9TwJJ-fEm1hBFP-6" value="Browses" style="verticalAlign=bottom;endArrow=open;entryX=0;entryY=0;shadow=0;strokeWidth=1;endFill=0;" edge="1" parent="1">
          <mxGeometry relative="1" as="geometry">
            <mxPoint x="177" y="266.0000000000001" as="sourcePoint" />
            <mxPoint x="347" y="266.0000000000001" as="targetPoint" />
          </mxGeometry>
        </mxCell>
        <mxCell id="O3cd_A9TwJJ-fEm1hBFP-7" value="Upload offers" style="verticalAlign=bottom;endArrow=none;entryX=0;entryY=0;shadow=0;strokeWidth=1;endFill=0;startArrow=open;startFill=0;" edge="1" parent="1">
          <mxGeometry relative="1" as="geometry">
            <mxPoint x="176" y="297.0000000000002" as="sourcePoint" />
            <mxPoint x="346" y="297.0000000000002" as="targetPoint" />
          </mxGeometry>
        </mxCell>
      </root>
    </mxGraphModel>
  </diagram>
</mxfile>
